<svg width="94" height="75" viewBox="0 0 94 75" fill="none" xmlns="http://www.w3.org/2000/svg">
<g clip-path="url(#clip0_2456_831)">
<path d="M51.2961 41.9763C51.2919 42.834 51.2577 42.8382 50.4553 42.8767C49.8236 42.9108 49.1833 42.9151 48.5516 42.9023C47.4931 42.8767 46.4303 42.8382 45.3718 42.8041C43.323 42.7316 41.2017 42.659 39.1102 42.659H39.0547C36.9804 42.659 34.8718 42.706 32.8316 42.7529C30.7402 42.7998 28.5676 42.8511 26.4548 42.8468C24.7987 42.8468 23.1085 42.7913 21.478 42.7401C19.2628 42.6676 16.975 42.595 14.7214 42.6505C10.9781 42.7486 7.51653 41.5368 4.12752 38.9508C1.15254 36.6722 -0.230376 33.3907 0.0299883 29.1961C0.0385249 29.0382 0.0470614 28.8803 0.0513296 28.7181C0.0684027 28.2957 0.0854758 27.8946 0.162305 27.5063C0.213524 27.2545 0.256206 27.0027 0.303157 26.751C0.533644 25.4537 0.755593 24.2248 1.5623 23.2092C2.1001 22.5307 2.67204 21.8778 3.27387 21.1866C3.54704 20.8708 3.82448 20.555 4.10618 20.2222L4.29825 20.0003L4.11899 19.7699C4.09338 19.74 4.0635 19.6888 4.02508 19.6333C3.87996 19.4114 3.65375 19.0786 3.34216 18.814C2.56961 18.1611 2.24522 17.3034 1.92937 16.339C1.46413 14.9181 1.48974 13.4971 1.51108 11.9908C1.51108 11.7433 1.51961 11.4958 1.51961 11.244C1.53669 8.61971 3.07326 6.73788 4.51167 5.17609C4.87447 4.77925 5.36105 4.48481 5.87324 4.16904C6.32568 3.89167 6.79946 3.6015 7.20067 3.23026C8.02872 2.46217 8.972 1.9117 10.0775 1.54472C11.9641 0.92598 13.9829 0.315773 16.0915 0.315773H16.1213C16.5909 0.315773 17.0774 0.354178 17.5469 0.392582C18.1317 0.439521 18.7378 0.48646 19.3439 0.469391L20.6457 0.422452C23.6378 0.315773 26.728 0.204826 29.7713 0.490727C31.5298 0.657147 33.3267 0.601674 35.0682 0.550468C35.5121 0.537666 35.9602 0.524865 36.4041 0.512063C39.0163 0.452323 41.6669 0.337109 44.2321 0.226162L44.5096 0.213361C44.7742 0.200559 45.0303 0.149353 45.2736 0.0981466C45.551 0.038406 45.8071 -0.0170674 46.0504 -0.00426581C47.2327 0.0597419 48.415 0.157887 49.6656 0.268834C50.0839 0.302971 50.515 0.341376 50.9504 0.379781C50.9888 0.529132 51.0315 0.678483 51.0699 0.827835C51.2022 1.29722 51.326 1.74101 51.326 2.16773C51.3303 3.90021 51.2961 5.66682 51.2662 7.36943C51.2449 8.44476 51.2236 9.52009 51.215 10.5954C51.1937 12.4772 51.2065 14.3719 51.2236 16.1513C51.2278 16.6762 51.2449 17.2053 51.2662 17.7301C51.2833 18.2294 51.3004 18.7244 51.3089 19.2237L51.326 20.73C51.3516 22.7526 51.3772 24.8435 51.3601 26.9003C51.3473 28.3341 51.3132 29.7892 51.2833 31.2016C51.2492 32.6952 51.2108 34.2356 51.2022 35.7547C51.1937 36.7916 51.2236 37.8414 51.2492 38.857C51.2748 39.8768 51.3047 40.9308 51.2961 41.9677V41.9763ZM43.1096 25.3428L43.0882 24.9075L42.7767 24.8777C42.5974 24.8606 42.4267 24.8393 42.2559 24.8179C41.8761 24.771 41.5175 24.7241 41.1419 24.7241C38.5383 24.7198 35.9389 24.7241 33.3353 24.7326L27.3469 24.7454C23.8128 24.7539 20.2786 24.7625 16.7488 24.7625H16.5738C15.9592 24.7625 15.3232 24.7625 14.7299 24.6686C12.9458 24.3827 11.8104 25.0398 11.1744 25.6415C10.1757 26.5803 9.67627 28.0866 9.83846 29.6697C9.97505 31.0224 10.7348 32.3666 11.8147 33.1773C12.775 33.8942 13.8933 34.1588 15.0543 33.9412C15.4427 33.8686 15.8738 33.9326 16.3348 34.0009C16.6634 34.0479 17.0006 34.0991 17.3463 34.1033C18.7805 34.1119 20.2402 34.0863 21.653 34.0649L22.9591 34.0436C24.2737 34.0265 25.5884 34.0052 26.903 33.9838L29.6133 33.9454C29.6944 33.9454 29.7713 33.9454 29.8438 33.9625C31.2908 34.2185 32.7548 34.1716 34.1676 34.1247C35.2432 34.0905 36.3572 34.0521 37.4413 34.1545C37.7145 34.1801 37.9919 34.1929 38.2651 34.1929C39.1486 34.1929 40.0407 34.0777 40.9712 33.9582C41.5218 33.8857 42.0937 33.8132 42.6785 33.762L42.9687 33.7363L43.0072 33.4504C43.3614 30.7749 43.2462 28.1378 43.1181 25.3471L43.1096 25.3428ZM43.1267 11.9225C43.0925 11.2867 43.0541 10.6338 43.0541 9.98948V9.6481L42.7126 9.63103C41.987 9.5969 41.27 9.55422 40.5657 9.51582C38.8968 9.42194 37.3261 9.3366 35.7255 9.30246C34.9529 9.28539 34.1718 9.3366 33.4121 9.38354C32.759 9.42621 32.0847 9.46461 31.4188 9.46461C30.6292 9.46461 29.8182 9.41341 29.0328 9.36647C28.3926 9.32806 27.7353 9.28966 27.0823 9.27259C26.5829 9.25979 26.0877 9.29393 25.6012 9.3238C25.2554 9.34513 24.8969 9.37073 24.5469 9.375H24.5256L23.8512 9.28539C23.7701 9.26832 23.689 9.25552 23.6036 9.24272H23.4884V9.26405C23.2451 9.28966 22.9975 9.3366 22.7542 9.37927C22.1908 9.48168 21.6573 9.57556 21.2177 9.45608C20.5134 9.25979 19.8646 9.31953 19.2415 9.375C18.9427 9.4006 18.6652 9.42194 18.3793 9.42621C17.2354 9.42621 16.0915 9.45608 14.9775 9.53715C13.3043 9.65664 12.3354 10.5101 11.9299 12.2127L11.8787 12.426C11.725 13.049 11.5671 13.6977 11.708 14.4828C11.8616 15.3491 12.2116 16.3732 13.539 16.5951C14.589 16.77 15.5153 16.8468 16.3945 16.8511C18.1872 16.8426 20.014 16.8212 21.7768 16.7956C23.8426 16.77 25.981 16.7402 28.0853 16.7402H28.1152C30.5865 16.7402 33.1005 16.7786 35.5334 16.817C36.8054 16.8383 38.073 16.8554 39.345 16.8724C39.7419 16.8724 40.1346 16.8767 40.5358 16.8767C40.873 16.8767 41.2102 16.8767 41.5517 16.8767H42.9218L42.9773 16.5865C43.3059 14.9394 43.2206 13.4118 43.1352 11.931L43.1267 11.9225Z" fill="black"/>
<path d="M42.6999 74.0655C42.6914 73.0286 42.7213 71.9746 42.7469 70.9547C42.7725 69.9391 42.8024 68.8851 42.7938 67.8525C42.7853 66.3334 42.7469 64.7929 42.7127 63.2994C42.6786 61.8912 42.6444 60.4318 42.6359 58.9981C42.6188 56.9413 42.6444 54.8504 42.67 52.8277L42.6871 51.3214C42.6914 50.8221 42.7127 50.3272 42.7298 49.8279C42.7469 49.303 42.7682 48.7739 42.7725 48.249C42.7896 46.4696 42.8024 44.575 42.781 42.6932C42.7682 41.6178 42.7469 40.5425 42.7298 39.4672C42.6957 37.7603 42.6615 35.998 42.67 34.2655C42.67 33.8388 42.7938 33.395 42.9261 32.9256C42.9688 32.7762 43.0072 32.6269 43.0457 32.4775C43.4853 32.4434 43.9121 32.405 44.3304 32.3666C45.581 32.2599 46.7676 32.1575 47.9456 32.0935C48.1889 32.0807 48.4493 32.1362 48.7224 32.1959C48.9657 32.2471 49.2218 32.3026 49.4865 32.3111L49.7639 32.3239C52.3291 32.4349 54.9797 32.5501 57.5919 32.6098C58.0358 32.6183 58.4797 32.6312 58.9279 32.6482C60.6651 32.6994 62.4663 32.7549 64.2248 32.5885C67.2681 32.3026 70.3626 32.4135 73.3546 32.5202L74.6564 32.5671C75.2625 32.5885 75.8643 32.5373 76.4491 32.4903C76.9186 32.4519 77.4052 32.4135 77.8747 32.4135H77.9046C80.0131 32.4135 82.032 33.0195 83.9186 33.6425C85.024 34.0052 85.9673 34.5599 86.7954 35.328C87.1966 35.6993 87.6661 35.9894 88.1228 36.2668C88.635 36.5826 89.1216 36.877 89.4844 37.2738C90.9228 38.8314 92.4551 40.7175 92.4764 43.3418C92.4764 43.5893 92.4807 43.841 92.485 44.0885C92.5106 45.5949 92.5319 47.0158 92.0667 48.4368C91.7508 49.4054 91.4264 50.2589 90.6539 50.9118C90.3423 51.1763 90.1203 51.5092 89.971 51.7311C89.9325 51.7865 89.9027 51.8377 89.8771 51.8676L89.6978 52.098L89.8899 52.3199C90.1716 52.6485 90.449 52.9685 90.7222 53.2843C91.324 53.9756 91.8917 54.6285 92.4338 55.307C93.2405 56.3225 93.4581 57.5515 93.6929 58.8487C93.7398 59.1005 93.7825 59.3522 93.8337 59.604C93.9106 59.9923 93.9276 60.3934 93.9447 60.8159C93.9533 60.978 93.9575 61.1359 93.9661 61.2938C94.2264 65.4885 92.8478 68.7699 89.8643 71.0486C86.4753 73.6345 83.0137 74.8464 79.2704 74.7482C77.0168 74.6928 74.729 74.7653 72.5138 74.8379C70.8833 74.8891 69.193 74.9445 67.537 74.9445C65.4242 74.9445 63.2516 74.8976 61.1602 74.8507C59.1199 74.8037 57.0114 74.7568 54.937 74.7568H54.8816C52.7944 74.7568 50.673 74.8293 48.62 74.9019C47.5615 74.936 46.4987 74.9744 45.4401 75C44.8084 75.0171 44.1682 75.0085 43.5365 74.9744C42.7298 74.9317 42.6999 74.9317 42.6957 74.074L42.6999 74.0655ZM50.895 57.432C50.7712 60.2228 50.6517 62.8599 51.006 65.5354L51.0444 65.8213L51.3346 65.8469C51.9194 65.8981 52.4913 65.9706 53.0419 66.0432C53.9724 66.1627 54.8645 66.2779 55.748 66.2779C56.0254 66.2779 56.2986 66.2651 56.5718 66.2395C57.6559 66.1371 58.7699 66.1755 59.8455 66.2096C61.2583 66.2565 62.7224 66.3035 64.1693 66.0475C64.2376 66.0347 64.3144 66.0304 64.3955 66.0304L67.1059 66.0688C68.4205 66.0901 69.7351 66.1072 71.0497 66.1285L72.3558 66.1499C73.7644 66.1712 75.2241 66.1968 76.6625 66.1883C77.004 66.1883 77.3454 66.1371 77.6741 66.0859C78.1308 66.0176 78.5662 65.9536 78.9546 66.0261C80.1155 66.2437 81.2338 65.9792 82.1942 65.2623C83.2783 64.4515 84.0338 63.1074 84.1704 61.7547C84.3283 60.1758 83.8289 58.6695 82.8344 57.7265C82.1942 57.1248 81.0631 56.4676 79.279 56.7535C78.6857 56.8474 78.0454 56.8474 77.4351 56.8474H77.2601C73.7259 56.8474 70.1918 56.8389 66.662 56.8303L60.6736 56.8175C58.0699 56.809 55.4706 56.8047 52.8669 56.809C52.4913 56.809 52.1328 56.8559 51.7529 56.9029C51.5822 56.9242 51.4072 56.9456 51.2322 56.9626L50.9206 56.9925L50.8993 57.4278L50.895 57.432ZM51.0316 48.6715L51.0871 48.9617H52.4572C52.7986 48.9617 53.1358 48.9617 53.473 48.9617C53.87 48.9617 54.2669 48.9617 54.6639 48.9574C55.9358 48.9446 57.2035 48.9233 58.4754 48.9019C60.9083 48.8635 63.4224 48.8251 65.8937 48.8251H65.9236C68.0235 48.8251 70.1619 48.855 72.232 48.8806C73.9948 48.9062 75.8174 48.9275 77.6143 48.9361C78.4936 48.9361 79.4198 48.855 80.4698 48.68C81.7972 48.4581 82.1472 47.434 82.3009 46.5678C82.4417 45.7826 82.2838 45.1383 82.1302 44.511L82.0789 44.2976C81.6735 42.5908 80.7046 41.7416 79.0314 41.6221C77.9174 41.541 76.7692 41.5069 75.6296 41.5112C75.3436 41.5069 75.0662 41.4856 74.7674 41.46C74.1442 41.4045 73.4955 41.3447 72.7912 41.541C72.3516 41.6605 71.818 41.5666 71.2503 41.4642C71.0113 41.4215 70.7638 41.3789 70.5162 41.349V41.3234L70.3967 41.3277C70.3156 41.3405 70.2345 41.3533 70.1491 41.3703L69.4748 41.46H69.4534C69.1034 41.4557 68.7449 41.4301 68.3991 41.4087C67.9168 41.3789 67.4174 41.3447 66.9181 41.3575C66.265 41.3703 65.6034 41.413 64.9675 41.4514C64.1821 41.4984 63.3754 41.5453 62.5815 41.5496C61.9157 41.5496 61.2413 41.5112 60.5882 41.4685C59.8327 41.4215 59.0516 41.3746 58.2748 41.3874C56.6742 41.4215 55.0992 41.5112 53.4346 41.6008C52.7303 41.6392 52.0133 41.6818 51.2877 41.716L50.9462 41.7331V42.0744C50.9462 42.7188 50.9078 43.3716 50.8694 44.0075C50.7883 45.4882 50.6987 47.0201 51.0273 48.663L51.0316 48.6715Z" fill="black"/>
<path d="M80.5592 15.2296C80.5592 20.3331 76.419 24.4723 71.3142 24.4723C66.2093 24.4723 62.0691 20.3331 62.0691 15.2296C62.0691 10.126 71.3142 0 71.3142 0C71.3142 0 80.5592 10.1218 80.5592 15.2296Z" fill="black"/>
<path d="M30.0827 65.6933C30.0827 70.7968 25.9424 74.936 20.8376 74.936C15.7327 74.936 11.5925 70.7968 11.5925 65.6933C11.5925 60.5897 20.8376 50.4637 20.8376 50.4637C20.8376 50.4637 30.0827 60.5855 30.0827 65.6933Z" fill="black"/>
</g>
<defs>
<clipPath id="clip0_2456_831">
<rect width="94" height="75" fill="white"/>
</clipPath>
</defs>
</svg>
